STARTFONT 2.1
COMMENT
COMMENT Converted from OpenType font "awesome_icons.ttf" by "otf2bdf 3.0".
COMMENT
FONT -FreeType-awesome_icons-Medium-R-Normal--42-300-100-100-P-88-ISO10646-1
SIZE 30 100 100
FONTBOUNDINGBOX 54 52 -7 -9
STARTPROPERTIES 19
FOUNDRY "FreeType"
FAMILY_NAME "awesome_icons"
WEIGHT_NAME "Medium"
SLANT "R"
SETWIDTH_NAME "Normal"
ADD_STYLE_NAME ""
PIXEL_SIZE 42
POINT_SIZE 300
RESOLUTION_X 100
RESOLUTION_Y 100
SPACING "P"
AVERAGE_WIDTH 88
CHARSET_REGISTRY "ISO10646"
CHARSET_ENCODING "1"
FONT_ASCENT 35
FONT_DESCENT 8
COPYRIGHT "Typeface © (your company). 2021. All Rights Reserved"
_OTF_FONTFILE "awesome_icons.ttf"
_OTF_PSNAME "awesome_icons"
ENDPROPERTIES
CHARS 241
STARTCHAR 0000
ENCODING 0
SWIDTH 0 0
DWIDTH 0 0
BBX 0 0 0 0
BITMAP
ENDCHAR
STARTCHAR 001D
ENCODING 29
SWIDTH 0 0
DWIDTH 0 0
BBX 0 0 0 0
BITMAP
ENDCHAR
STARTCHAR 0020
ENCODING 32
SWIDTH 240 0
DWIDTH 10 0
BBX 0 0 0 0
BITMAP
ENDCHAR
STARTCHAR 0021
ENCODING 33
SWIDTH 336 0
DWIDTH 14 0
BBX 7 29 3 -1
BITMAP
7E
7E
7E
7E
7E
7E
7E
7C
7C
7C
7C
7C
7C
7C
7C
7C
3C
3C
3C
00
00
00
7C
7E
FE
FE
FE
FE
7C
ENDCHAR
STARTCHAR 0022
ENCODING 34
SWIDTH 528 0
DWIDTH 22 0
BBX 16 14 3 15
BITMAP
FC3F
FC3F
FC3F
FC3F
FC3F
FC3F
FC3F
FC3F
F83E
781E
781E
781E
781E
781E
ENDCHAR
STARTCHAR 0023
ENCODING 35
SWIDTH 528 0
DWIDTH 22 0
BBX 19 28 1 0
BITMAP
038780
078780
078780
078780
078700
070700
070700
7FFFE0
7FFFE0
7FFFE0
7FFFE0
0F0F00
0F0E00
0F0E00
0E0E00
0E0E00
FFFFE0
FFFFE0
FFFFE0
FFFFE0
1E1E00
1E1C00
1C1C00
1C1C00
1C3C00
1C3C00
3C3C00
3C3C00
ENDCHAR
STARTCHAR 0024
ENCODING 36
SWIDTH 528 0
DWIDTH 22 0
BBX 18 36 2 -5
BITMAP
01E000
01E000
01E000
01E000
03F800
0FFE00
1FFF00
3FFFC0
3FFF80
7F0F00
7E0200
7E0000
7E0000
7F0000
7F8000
3FE000
1FF800
0FFE00
07FF00
01FF80
007F80
001FC0
000FC0
000FC0
000FC0
300FC0
7E3F80
7FFF80
FFFF00
7FFE00
1FFC00
03E000
01E000
01E000
01E000
01E000
ENDCHAR
STARTCHAR 0025
ENCODING 37
SWIDTH 840 0
DWIDTH 35 0
BBX 33 29 1 -1
BITMAP
0F80038000
1FE0038000
3FF0070000
7FF00F0000
78F80E0000
F8781E0000
F0781C0000
F0783C0000
F078380000
F078780000
F078700000
F078F0F800
78F8E1FE00
78F1E3FF00
7FF1C7FF00
3FE3C78F80
1FC38F8780
00078F0780
00070F0780
000F0F0780
000E0F0780
001E0F0780
001C0F0780
003C078F80
0038078F00
007807FF00
007003FE00
00E001FC00
01E0000000
ENDCHAR
STARTCHAR 0026
ENCODING 38
SWIDTH 816 0
DWIDTH 34 0
BBX 30 30 3 -1
BITMAP
00F60000
019E0000
03060000
06030000
06010000
06000000
06000000
07000000
07000000
03800000
03800000
0FC00000
10E00000
20601FF0
60300380
40380300
C01C0300
C00C0300
C0060200
C0030200
C0038600
E0018400
E000CC00
70006800
78007000
38003804
3E003C0C
1F005E18
0FE38FF8
03FE03F0
ENDCHAR
STARTCHAR 0027
ENCODING 39
SWIDTH 168 0
DWIDTH 7 0
BBX 3 10 2 23
BITMAP
E0
E0
E0
E0
E0
60
60
40
40
40
ENDCHAR
STARTCHAR 0028
ENCODING 40
SWIDTH 360 0
DWIDTH 15 0
BBX 9 40 5 -7
BITMAP
0180
0300
0600
0600
0C00
0C00
1800
1800
3800
3000
3000
7000
7000
7000
E000
E000
E000
E000
E000
E000
E000
E000
E000
E000
E000
E000
7000
7000
7000
7000
3000
3800
1800
1800
1C00
0C00
0600
0600
0300
0180
ENDCHAR
STARTCHAR 0029
ENCODING 41
SWIDTH 360 0
DWIDTH 15 0
BBX 9 40 1 -7
BITMAP
C000
6000
3000
3000
1800
1C00
0C00
0E00
0600
0600
0700
0700
0300
0380
0380
0380
0380
0380
0380
0380
0380
0380
0380
0380
0380
0380
0380
0300
0700
0700
0600
0600
0E00
0C00
0C00
1800
1800
3000
6000
4000
ENDCHAR
STARTCHAR 002A
ENCODING 42
SWIDTH 504 0
DWIDTH 21 0
BBX 12 12 5 21
BITMAP
0E00
0E00
0E00
C660
E4F0
F5F0
0E00
0A00
3B80
79C0
79C0
3180
ENDCHAR
STARTCHAR 002B
ENCODING 43
SWIDTH 504 0
DWIDTH 21 0
BBX 17 18 2 6
BITMAP
01C000
01C000
01C000
01C000
01C000
01C000
01C000
FFFF80
FFFF80
FFFF80
01C000
01C000
01C000
01C000
01C000
01C000
01C000
01C000
ENDCHAR
STARTCHAR 002C
ENCODING 44
SWIDTH 264 0
DWIDTH 11 0
BBX 5 11 2 -5
BITMAP
30
78
F8
38
18
18
18
18
10
20
60
ENDCHAR
STARTCHAR 002D
ENCODING 45
SWIDTH 312 0
DWIDTH 13 0
BBX 9 3 2 8
BITMAP
FF80
FF80
FF80
ENDCHAR
STARTCHAR 002E
ENCODING 46
SWIDTH 264 0
DWIDTH 11 0
BBX 5 5 3 1
BITMAP
70
F0
F8
70
60
ENDCHAR
STARTCHAR 002F
ENCODING 47
SWIDTH 288 0
DWIDTH 12 0
BBX 13 31 0 -1
BITMAP
0018
0010
0030
0030
0020
0060
0060
0040
00C0
00C0
0080
0180
0100
0300
0300
0200
0600
0600
0400
0C00
0C00
0800
1800
1800
1000
3000
3000
6000
6000
4000
C000
ENDCHAR
STARTCHAR 0030
ENCODING 48
SWIDTH 528 0
DWIDTH 22 0
BBX 19 28 2 -1
BITMAP
01F000
07FC00
0FFE00
1FFF00
3FFF80
3F1F80
7E0FC0
7E0FC0
7C07C0
FC07E0
FC07E0
FC07E0
FC07E0
FC07E0
FC07E0
FC07E0
FC07E0
FC07E0
FC07E0
FC07E0
7C07C0
7E0FC0
7E0FC0
3FBF80
3FFF80
1FFF00
0FFE00
07FC00
ENDCHAR
STARTCHAR 0031
ENCODING 49
SWIDTH 528 0
DWIDTH 22 0
BBX 17 27 3 0
BITMAP
01F000
0FF000
7FF000
7FF000
7FF000
7FF000
7FF000
03F000
03F000
03F000
03F000
03F000
03F000
03F000
03F000
03F000
03F000
03F000
03F000
03F000
03F000
03F000
FFFF80
FFFF80
FFFF80
FFFF80
FFFF80
ENDCHAR
STARTCHAR 0032
ENCODING 50
SWIDTH 528 0
DWIDTH 22 0
BBX 19 28 2 0
BITMAP
07E000
1FF800
3FFE00
7FFE00
FFFF00
7C7F00
301F80
001F80
001F80
001F80
001F80
001F80
003F00
003F00
007E00
00FE00
01FC00
01F800
03F800
07F000
0FE000
1FC000
3F8000
7FFFE0
FFFFE0
FFFFE0
FFFFE0
FFFFE0
ENDCHAR
STARTCHAR 0033
ENCODING 51
SWIDTH 528 0
DWIDTH 22 0
BBX 19 28 1 -1
BITMAP
03F000
0FFE00
3FFF00
7FFF80
3FFF80
3E1FC0
180FC0
000FC0
000FC0
000FC0
001FC0
003F80
03FF00
03FE00
03FE00
03FF80
01FFC0
000FC0
000FE0
0007E0
0007E0
3007E0
380FE0
7FFFC0
FFFFC0
7FFF80
3FFF00
0FFC00
ENDCHAR
STARTCHAR 0034
ENCODING 52
SWIDTH 528 0
DWIDTH 22 0
BBX 20 27 1 0
BITMAP
007F80
007F80
00FF80
01FF80
01FF80
03FF80
03FF80
07DF80
07DF80
0F9F80
1F9F80
1F1F80
3F1F80
3E1F80
7E1F80
7C1F80
FFFFF0
FFFFF0
FFFFF0
FFFFF0
FFFFF0
001F80
001F80
001F80
001F80
001F80
001F80
ENDCHAR
STARTCHAR 0035
ENCODING 53
SWIDTH 528 0
DWIDTH 22 0
BBX 19 27 1 -1
BITMAP
3FFF80
3FFF80
3FFF80
3FFF80
3FFF80
3F0000
3F0000
3F0000
3F0000
3F0000
3FFE00
3FFF00
3FFF80
3FFFC0
1C1FC0
000FE0
0007E0
0007E0
0007E0
0007E0
200FE0
781FC0
FFFFC0
FFFF80
FFFF80
3FFE00
0FFC00
ENDCHAR
STARTCHAR 0036
ENCODING 54
SWIDTH 528 0
DWIDTH 22 0
BBX 19 27 2 -1
BITMAP
00FC00
07FF80
0FFFC0
1FFFC0
3FFF80
3F8780
7F0100
7E0000
7C0000
FC0000
FC7C00
FDFF00
FFFF80
FFFFC0
FFBFC0
FE07E0
FC07E0
FC07E0
FC07E0
7C07E0
7E07E0
7E07E0
3F9FC0
3FFFC0
1FFF80
0FFF00
03FC00
ENDCHAR
STARTCHAR 0037
ENCODING 55
SWIDTH 528 0
DWIDTH 22 0
BBX 18 27 2 0
BITMAP
FFFFC0
FFFFC0
FFFFC0
FFFFC0
FFFFC0
000F80
001F00
003F00
003E00
007C00
007C00
00F800
00F800
01F800
01F000
01F000
03F000
03F000
03F000
07E000
07E000
07E000
07E000
07E000
07E000
07E000
07E000
ENDCHAR
STARTCHAR 0038
ENCODING 56
SWIDTH 528 0
DWIDTH 22 0
BBX 19 27 2 -1
BITMAP
07F800
1FFE00
3FFF00
3FFF00
7F1F80
7E0F80
7C0F80
7C0F80
7E0F80
7E0F80
3F9F00
1FFE00
1FFC00
0FFE00
1FFF00
3EFF80
7C3FC0
FC0FC0
F807E0
F807E0
F807E0
FC07E0
FE0FC0
7FFFC0
3FFF80
1FFF00
0FFC00
ENDCHAR
STARTCHAR 0039
ENCODING 57
SWIDTH 528 0
DWIDTH 22 0
BBX 19 28 1 -1
BITMAP
01C000
0FF800
1FFE00
3FFF00
7FFF00
7E3F80
FC0F80
FC0FC0
FC0FC0
FC07C0
FC07C0
FC0FE0
FC0FE0
7F3FE0
7FFFE0
3FFFE0
1FF7E0
07C7C0
0007C0
000FC0
000FC0
001F80
181F80
3FFF00
7FFF00
7FFE00
3FFC00
1FF000
ENDCHAR
STARTCHAR 003A
ENCODING 58
SWIDTH 312 0
DWIDTH 13 0
BBX 7 21 3 -1
BITMAP
3C
7E
FE
FE
FE
FE
7E
38
00
00
00
00
00
00
7C
7E
FE
FE
FE
FE
7C
ENDCHAR
STARTCHAR 003B
ENCODING 59
SWIDTH 312 0
DWIDTH 13 0
BBX 9 29 2 -8
BITMAP
1800
7E00
7F00
7F00
7F00
7F00
7E00
3C00
0000
0000
0000
0000
0000
0000
3E00
7F00
7F00
7F00
7F80
7F80
1F80
0700
0F00
0F00
1E00
7E00
FC00
7800
6000
ENDCHAR
STARTCHAR 003C
ENCODING 60
SWIDTH 504 0
DWIDTH 21 0
BBX 17 21 2 5
BITMAP
000180
000780
000F80
003F00
00FC00
03F000
07E000
1F8000
7E0000
FC0000
F80000
7E0000
3F0000
0FC000
03F000
00F800
007E00
001F80
000780
000380
000080
ENDCHAR
STARTCHAR 003D
ENCODING 61
SWIDTH 504 0
DWIDTH 21 0
BBX 17 9 2 10
BITMAP
FFFF80
FFFF80
FFFF80
000000
000000
000000
FFFF80
FFFF80
FFFF80
ENDCHAR
STARTCHAR 003E
ENCODING 62
SWIDTH 504 0
DWIDTH 21 0
BBX 17 21 2 5
BITMAP
C00000
F00000
F80000
7E0000
1F8000
07E000
03F000
00FC00
003F00
001F80
000F80
003F00
007E00
01F800
07E000
0F8000
3F0000
FC0000
F00000
E00000
800000
ENDCHAR
STARTCHAR 003F
ENCODING 63
SWIDTH 360 0
DWIDTH 15 0
BBX 11 30 2 0
BITMAP
1E00
7F80
C3C0
01E0
01E0
01E0
01E0
01E0
01C0
03C0
0380
0700
0700
0E00
0C00
1800
1800
1000
1000
1000
1000
1000
0800
0000
0000
1C00
3E00
3E00
1C00
0800
ENDCHAR
STARTCHAR 0040
ENCODING 64
SWIDTH 984 0
DWIDTH 41 0
BBX 36 38 2 -9
BITMAP
0001FE0000
001E03C000
0070007000
00E0003C00
0180000E00
0700000700
0600000780
0E00000380
1C03F801C0
38071C01C0
38060E01E0
38040700E0
70040700F0
70000700F0
70000F00F0
F000F700F0
F0038700F0
E00E0700F0
E01C0700F0
E0180700F0
E0380700E0
F0380700E0
F0380701E0
70380701C0
7018070380
701C070380
780E0F0600
38070F1C00
3C01F9F000
1C00000000
0E00000000
0700000000
0780000000
01C0000400
00E0001C00
0078007000
001F03C000
0001FE0000
ENDCHAR
STARTCHAR 0041
ENCODING 65
SWIDTH 1008 0
DWIDTH 42 0
BBX 25 25 0 2
BITMAP
80000080
C0000180
E0000380
B0000780
98000E80
AC001B80
F6002F80
AB007E80
BD80FF80
FEC1BD80
DF63FE80
BFB7FF80
BFDFFF80
DFFFFF80
6FFFFF00
37DFFE00
1BF5FC00
0DFFF800
06ABF000
0355C000
01968000
00CB0000
006E0000
003C0000
00180000
ENDCHAR
STARTCHAR 0042
ENCODING 66
SWIDTH 1008 0
DWIDTH 42 0
BBX 25 25 0 2
BITMAP
00180000
003C0000
006E0000
00CB8000
0196C000
0355E000
06ABF000
0D7FF800
1BFDFC00
37FFFE00
6FBFFF00
D7FFFF80
BFDFFF80
BFB7FF80
DF63FE80
FEC1BF80
BD80BF80
AB005E80
F6002F80
DC001B80
98000E80
B0000780
E0000380
C0000180
80000080
ENDCHAR
STARTCHAR 0043
ENCODING 67
SWIDTH 1128 0
DWIDTH 47 0
BBX 47 37 0 -2
BITMAP
000007C03F00
00000FE07F00
00001FF07F00
00003FF87F00
00007FFE7F00
0001FFFF7F00
0003FC7FFF00
0007F83FFF00
000FF01FFF00
003FE10FFF00
007FC7C3FF00
00FF0FE1FF00
01FE1FF0FF80
03FC3FF87FC0
0FF87FFC3FE0
1FF1FFFF0FF0
3FC3FFFF87F8
7F87FFFFC3FC
FF0FFFFFE1FE
FE1FFFFFF07E
783FFFFFF83C
30FFFFFFFE18
00FFFFFFFE00
00FFFFFFFE00
00FFFFFFFE00
00FFFFFFFE00
00FFF01FFE00
00FFF01FFE00
00FFF01FFE00
00FFF01FFE00
00FFF01FFE00
00FFF01FFE00
00FFF01FFE00
00FFF01FFE00
00FFF01FFE00
00FFF01FFE00
00FFE00FFE00
ENDCHAR
STARTCHAR 0044
ENCODING 68
SWIDTH 1008 0
DWIDTH 42 0
BBX 16 37 1 -3
BITMAP
07C0
0EE0
0830
0810
0E10
0E10
0810
0E10
0810
0E10
0810
0E10
0810
0810
0B90
0B90
0B90
0B90
0B90
0B90
0B90
1B90
3B9C
638E
4386
CFE3
8FF3
9FF1
9FF1
9FF1
DFF3
CFE3
47C6
6004
381C
0FF0
03C0
ENDCHAR
STARTCHAR 0045
ENCODING 69
SWIDTH 552 0
DWIDTH 23 0
BBX 18 28 3 0
BITMAP
FFFF80
FFFF80
FFFF80
FFFF80
FFFF80
FC0000
FC0000
FC0000
FC0000
FC0000
FC0000
FFFF00
FFFF00
FFFF00
FFFF00
FFFF00
FC0000
FC0000
FC0000
FC0000
FC0000
FC0000
FC0000
FFFFC0
FFFFC0
FFFFC0
FFFFC0
FFFFC0
ENDCHAR
STARTCHAR 0046
ENCODING 70
SWIDTH 1008 0
DWIDTH 42 0
BBX 36 21 1 5
BITMAP
0000E00000
000FFF0000
007FFFC000
00FF9FF000
03F801F800
07C0007800
0F80000000
0F00000C00
1E00000980
3C000013C0
38000021C0
78000041E0
70000180E0
70000300E0
F0000600F0
E0000C0070
E0001C0070
E000780070
E000F00070
0000F00000
0000600000
ENDCHAR
STARTCHAR 0047
ENCODING 71
SWIDTH 984 0
DWIDTH 41 0
BBX 36 22 0 4
BITMAP
0000018000
000007C000
00000C6000
00000C21E0
00000021F0
0000002330
0000006030
000000C030
FFFFFFCFE0
FFFFFE0F80
3FFFFFC000
3FFFFFF800
0000001C00
07FFF00C00
0FFFF8E600
00000DF600
00000F0600
00001B0600
0000030600
0000018C00
000001F800
0000006000
ENDCHAR
STARTCHAR 0048
ENCODING 72
SWIDTH 528 0
DWIDTH 22 0
BBX 22 49 0 -6
BITMAP
007800
01FE00
03FF00
03FF00
07CF80
078780
078780
078780
078780
078780
078780
078780
078780
078780
078780
07A780
07A780
07A780
07A780
07A780
07A780
07A780
07A780
07A780
07A780
07A780
07A780
07A780
07A780
0FA7C0
1FA7E0
3E21F0
7C78F8
78FC78
F9FE3C
F3FF3C
F3FF3C
F3FF3C
F3FF3C
F3FF3C
F3FE3C
79FE78
78FC78
3C00F0
3F03F0
1FFFE0
0FFFC0
07FF80
00FC00
ENDCHAR
STARTCHAR 0049
ENCODING 73
SWIDTH 384 0
DWIDTH 16 0
BBX 12 12 2 17
BITMAP
1F00
3FC0
7FE0
F0E0
F0F0
E070
E070
F0F0
F0E0
7FE0
3FC0
1F00
ENDCHAR
STARTCHAR 004A
ENCODING 74
SWIDTH 744 0
DWIDTH 31 0
BBX 32 42 0 -6
BITMAP
00018000
0003C000
0007E000
000FF000
001FF800
003FFC00
003FFC00
007FFE00
00FFFF00
01FFFF80
03FFFFC0
03FFFFC0
07FFF0E0
0E0FF1F0
0C07F1F0
1C03E3F8
1863E3F8
3863C7FC
3863C7FC
78638FFE
78638FFE
78631FFE
FC031FFF
FC071FFF
FE0E383F
FFFE301F
FFFC601F
FFFC618F
FFF8E18F
FFF8E18F
7FF1E18E
7FF1E18E
7FF3E18E
3FE3F01C
3FE3F018
1FC7FC78
0FFFFFF0
07FFFFE0
03FFFFC0
01FFFF00
007FFE00
000FF000
ENDCHAR
STARTCHAR 004B
ENCODING 75
SWIDTH 1008 0
DWIDTH 42 0
BBX 25 37 0 -4
BITMAP
00080000
000C0000
001C0000
001E0000
003E0000
007F0000
007F0000
00FF8000
00FF8000
01FFC000
01FFC000
03FFE000
03FFE000
07FFF000
07FFF000
0FFFF800
0FFFF800
1FFFFC00
1FFFFC00
3FFFFE00
3FFFFF00
7FFFFF00
7FFFFF00
7FFFFF80
FFFFFF80
EFFFFF80
EFFFFF80
77FFFF80
73FFFF80
71FFFF00
387FFF00
3C03FE00
1E03FE00
0F83FC00
07F7F000
01FFE000
007F8000
ENDCHAR
STARTCHAR 004C
ENCODING 76
SWIDTH 552 0
DWIDTH 23 0
BBX 0 0 0 0
BITMAP
ENDCHAR
STARTCHAR 004D
ENCODING 77
SWIDTH 888 0
DWIDTH 37 0
BBX 0 0 0 0
BITMAP
ENDCHAR
STARTCHAR 004E
ENCODING 78
SWIDTH 648 0
DWIDTH 27 0
BBX 21 28 3 0
BITMAP
FC01F8
FE01F8
FE01F8
FF01F8
FF01F8
FF81F8
FF81F8
FFC1F8
FFC1F8
FBE1F8
FBE1F8
F9F1F8
F9F1F8
FDF9F8
FCF9F8
FCFCF8
FC7CF8
FC7EF8
FC3EF8
FC3FF8
FC1FF8
FC1FF8
FC0FF8
FC0FF8
FC07F8
FC07F8
FC03F8
FC03F8
ENDCHAR
STARTCHAR 004F
ENCODING 79
SWIDTH 792 0
DWIDTH 33 0
BBX 0 0 0 0
BITMAP
ENDCHAR
STARTCHAR 0050
ENCODING 80
SWIDTH 552 0
DWIDTH 23 0
BBX 0 0 0 0
BITMAP
ENDCHAR
STARTCHAR 0051
ENCODING 81
SWIDTH 792 0
DWIDTH 33 0
BBX 0 0 0 0
BITMAP
ENDCHAR
STARTCHAR 0052
ENCODING 82
SWIDTH 624 0
DWIDTH 26 0
BBX 0 0 0 0
BITMAP
ENDCHAR
STARTCHAR 0053
ENCODING 83
SWIDTH 576 0
DWIDTH 24 0
BBX 20 28 2 -1
BITMAP
03FE00
0FFF80
1FFFE0
3FFFE0
3FFFE0
7F07C0
7E0180
7E0000
7E0000
7F8000
7FE000
3FF800
3FFE00
1FFF80
07FFC0
03FFE0
007FF0
001FF0
0007F0
0003F0
1003F0
3803F0
3E07F0
7FFFE0
FFFFE0
7FFFC0
1FFF80
07FE00
ENDCHAR
STARTCHAR 0054
ENCODING 84
SWIDTH 648 0
DWIDTH 27 0
BBX 0 0 0 0
BITMAP
ENDCHAR
STARTCHAR 0055
ENCODING 85
SWIDTH 744 0
DWIDTH 31 0
BBX 0 0 0 0
BITMAP
ENDCHAR
STARTCHAR 0056
ENCODING 86
SWIDTH 720 0
DWIDTH 30 0
BBX 0 0 0 0
BITMAP
ENDCHAR
STARTCHAR 0057
ENCODING 87
SWIDTH 816 0
DWIDTH 34 0
BBX 32 28 1 0
BITMAP
FC07E03F
FC07E03F
FC07E03F
FC07E03F
FC07F03F
7E0FF03E
7E0FF03E
7E0FF07E
7E0FF87E
7E1FF87E
7E1FF87E
3E1EF87C
3F1E787C
3F1E7C7C
3F3E7CFC
3F3E7CFC
1F3E7CFC
1F3C3CF8
1F3C3EF8
1FFC3EF8
1FFC3EF8
1FFC3FF8
0FF81FF0
0FF81FF0
0FF81FF0
0FF81FF0
0FF81FF0
07F00FF0
ENDCHAR
STARTCHAR 0058
ENCODING 88
SWIDTH 648 0
DWIDTH 27 0
BBX 0 0 0 0
BITMAP
ENDCHAR
STARTCHAR 0059
ENCODING 89
SWIDTH 600 0
DWIDTH 25 0
BBX 0 0 0 0
BITMAP
ENDCHAR
STARTCHAR 005A
ENCODING 90
SWIDTH 552 0
DWIDTH 23 0
BBX 0 0 0 0
BITMAP
ENDCHAR
STARTCHAR 005B
ENCODING 91
SWIDTH 360 0
DWIDTH 15 0
BBX 0 0 0 0
BITMAP
ENDCHAR
STARTCHAR 005C
ENCODING 92
SWIDTH 288 0
DWIDTH 12 0
BBX 0 0 0 0
BITMAP
ENDCHAR
STARTCHAR 005D
ENCODING 93
SWIDTH 360 0
DWIDTH 15 0
BBX 0 0 0 0
BITMAP
ENDCHAR
STARTCHAR 005E
ENCODING 94
SWIDTH 504 0
DWIDTH 21 0
BBX 0 0 0 0
BITMAP
ENDCHAR
STARTCHAR 005F
ENCODING 95
SWIDTH 504 0
DWIDTH 21 0
BBX 21 1 0 -3
BITMAP
FFFFF8
ENDCHAR
STARTCHAR 0060
ENCODING 96
SWIDTH 504 0
DWIDTH 21 0
BBX 9 8 4 22
BITMAP
4000
E000
F000
7800
3C00
0E00
0300
0180
ENDCHAR
STARTCHAR 0061
ENCODING 97
SWIDTH 456 0
DWIDTH 19 0
BBX 0 0 0 0
BITMAP
ENDCHAR
STARTCHAR 0062
ENCODING 98
SWIDTH 480 0
DWIDTH 20 0
BBX 0 0 0 0
BITMAP
ENDCHAR
STARTCHAR 0063
ENCODING 99
SWIDTH 432 0
DWIDTH 18 0
BBX 0 0 0 0
BITMAP
ENDCHAR
STARTCHAR 0064
ENCODING 100
SWIDTH 1032 0
DWIDTH 43 0
BBX 36 36 1 -4
BITMAP
0000600000
0000600000
0000600000
0000600100
0C00600380
0E00600700
0700600E00
0380601C00
01C0003800
00E0F83000
0063FE2000
0007FF0000
000FFF8000
001FFFC000
003FFFC000
003FFFE000
003FFFE000
FF3FFFEFF0
FFBFFFEFF0
003FFFE000
003FFFE000
003FFFC000
001FFFC000
001FFF8000
000FFF0000
0007FE0000
00E1F83000
01E0003800
03C0601C00
0780600E00
0F00600700
0E00600380
0C00600180
0000600000
0000600000
0000600000
ENDCHAR
STARTCHAR 0065
ENCODING 101
SWIDTH 1008 0
DWIDTH 42 0
BBX 36 36 0 -3
BITMAP
1F00000000
3F8001F000
7FC01FFF00
F1C07FFFC0
E0E0FFFFE0
E0E3FFFFF0
E0E7FFFFF0
F1CFFFFFE0
7FCFFC07E0
3F9FF001C0
1F3FE000C0
003FC00000
003F800000
007F000000
007F000000
007E000000
007E000000
00FE000000
00FE000000
00FE000000
00FE000000
007E000000
007F000000
007F000000
007F800000
003FC00000
003FC00080
001FF001C0
001FFC07E0
000FFFFFE0
0007FFFFF0
0003FFFFF0
0001FFFFF0
00007FFFC0
00001FFF80
000007FC00
ENDCHAR
STARTCHAR 0066
ENCODING 102
SWIDTH 264 0
DWIDTH 11 0
BBX 0 0 0 0
BITMAP
ENDCHAR
STARTCHAR 0067
ENCODING 103
SWIDTH 432 0
DWIDTH 18 0
BBX 0 0 0 0
BITMAP
ENDCHAR
STARTCHAR 0068
ENCODING 104
SWIDTH 528 0
DWIDTH 22 0
BBX 0 0 0 0
BITMAP
ENDCHAR
STARTCHAR 0069
ENCODING 105
SWIDTH 240 0
DWIDTH 10 0
BBX 0 0 0 0
BITMAP
ENDCHAR
STARTCHAR 006A
ENCODING 106
SWIDTH 240 0
DWIDTH 10 0
BBX 0 0 0 0
BITMAP
ENDCHAR
STARTCHAR 006B
ENCODING 107
SWIDTH 504 0
DWIDTH 21 0
BBX 0 0 0 0
BITMAP
ENDCHAR
STARTCHAR 006C
ENCODING 108
SWIDTH 264 0
DWIDTH 11 0
BBX 0 0 0 0
BITMAP
ENDCHAR
STARTCHAR 006D
ENCODING 109
SWIDTH 768 0
DWIDTH 32 0
BBX 0 0 0 0
BITMAP
ENDCHAR
STARTCHAR 006E
ENCODING 110
SWIDTH 1008 0
DWIDTH 42 0
BBX 25 27 9 -1
BITMAP
00FE0000
03FC0000
07F80000
0FF00000
1FE00000
3FE00000
3FC00000
7FC00000
7FC00000
FFC00000
FFC00000
FFC00000
FFC00000
FFC00000
FFE00000
FFE00000
FFF00000
FFF80000
7FFC0000
7FFE0080
3FFFEF80
1FFFFF00
1FFFFE00
0FFFFC00
03FFF800
01FFE000
003F0000
ENDCHAR
STARTCHAR 006F
ENCODING 111
SWIDTH 504 0
DWIDTH 21 0
BBX 0 0 0 0
BITMAP
ENDCHAR
STARTCHAR 0070
ENCODING 112
SWIDTH 504 0
DWIDTH 21 0
BBX 0 0 0 0
BITMAP
ENDCHAR
STARTCHAR 0071
ENCODING 113
SWIDTH 504 0
DWIDTH 21 0
BBX 0 0 0 0
BITMAP
ENDCHAR
STARTCHAR 0072
ENCODING 114
SWIDTH 336 0
DWIDTH 14 0
BBX 0 0 0 0
BITMAP
ENDCHAR
STARTCHAR 0073
ENCODING 115
SWIDTH 336 0
DWIDTH 14 0
BBX 0 0 0 0
BITMAP
ENDCHAR
STARTCHAR 0074
ENCODING 116
SWIDTH 336 0
DWIDTH 14 0
BBX 0 0 0 0
BITMAP
ENDCHAR
STARTCHAR 0075
ENCODING 117
SWIDTH 528 0
DWIDTH 22 0
BBX 0 0 0 0
BITMAP
ENDCHAR
STARTCHAR 0076
ENCODING 118
SWIDTH 480 0
DWIDTH 20 0
BBX 0 0 0 0
BITMAP
ENDCHAR
STARTCHAR 0077
ENCODING 119
SWIDTH 696 0
DWIDTH 29 0
BBX 0 0 0 0
BITMAP
ENDCHAR
STARTCHAR 0078
ENCODING 120
SWIDTH 504 0
DWIDTH 21 0
BBX 0 0 0 0
BITMAP
ENDCHAR
STARTCHAR 0079
ENCODING 121
SWIDTH 432 0
DWIDTH 18 0
BBX 0 0 0 0
BITMAP
ENDCHAR
STARTCHAR 007A
ENCODING 122
SWIDTH 360 0
DWIDTH 15 0
BBX 0 0 0 0
BITMAP
ENDCHAR
STARTCHAR 007B
ENCODING 123
SWIDTH 480 0
DWIDTH 20 0
BBX 14 38 4 -5
BITMAP
007C
01C0
0180
0380
0380
0380
0380
0380
0380
0380
0380
0380
0380
0380
0380
0300
0700
0E00
F800
3E00
0700
0700
0300
0380
0380
0380
0380
0380
0380
0380
0380
0380
0380
0380
0380
0180
01C0
007C
ENDCHAR
STARTCHAR 007C
ENCODING 124
SWIDTH 504 0
DWIDTH 21 0
BBX 3 41 9 -8
BITMAP
E0
E0
E0
E0
E0
E0
E0
E0
E0
E0
E0
E0
E0
E0
E0
E0
E0
E0
E0
E0
E0
E0
E0
E0
E0
E0
E0
E0
E0
E0
E0
E0
E0
E0
E0
E0
E0
E0
E0
E0
E0
ENDCHAR
STARTCHAR 007D
ENCODING 125
SWIDTH 504 0
DWIDTH 21 0
BBX 13 38 3 -5
BITMAP
F800
0C00
0600
0600
0700
0700
0700
0700
0700
0700
0700
0700
0700
0700
0700
0700
0380
01C0
0078
01E0
0380
0700
0700
0700
0700
0700
0700
0700
0700
0700
0700
0700
0700
0700
0600
0600
0C00
F800
ENDCHAR
STARTCHAR 007E
ENCODING 126
SWIDTH 504 0
DWIDTH 21 0
BBX 17 5 2 12
BITMAP
1E0080
7FC380
FFFF80
E1FF00
803C00
ENDCHAR
STARTCHAR 00A0
ENCODING 160
SWIDTH 240 0
DWIDTH 10 0
BBX 0 0 0 0
BITMAP
ENDCHAR
STARTCHAR 00A1
ENCODING 161
SWIDTH 336 0
DWIDTH 14 0
BBX 0 0 0 0
BITMAP
ENDCHAR
STARTCHAR 00A2
ENCODING 162
SWIDTH 552 0
DWIDTH 23 0
BBX 0 0 0 0
BITMAP
ENDCHAR
STARTCHAR 00A3
ENCODING 163
SWIDTH 504 0
DWIDTH 21 0
BBX 17 30 2 0
BITMAP
00FE00
07FF80
0F0380
1E0180
1C0000
3C0000
380000
380000
380000
380000
380000
380000
380000
3C0000
1C0000
FFF800
0E0000
0E0000
070000
070000
070000
070000
070000
0E0000
0E0000
1C0080
1C0080
380180
7FFF00
7FFF00
ENDCHAR
STARTCHAR 00A4
ENCODING 164
SWIDTH 504 0
DWIDTH 21 0
BBX 15 15 3 7
BITMAP
4004
E7CE
7FFC
3C38
3018
700C
600C
600C
600C
701C
3018
3C78
7FFC
E7CE
4004
ENDCHAR
STARTCHAR 00A5
ENCODING 165
SWIDTH 624 0
DWIDTH 26 0
BBX 26 25 0 0
BITMAP
FF807FC0
3E000F00
1E000C00
0E001C00
07001800
07803000
03806000
01C04000
FFE0FF80
00E18000
00710000
003A0000
003C0000
FFFFFF80
001C0000
001C0000
001C0000
001C0000
001C0000
001C0000
001C0000
001C0000
001C0000
003C0000
01FFC000
ENDCHAR
STARTCHAR 00A6
ENCODING 166
SWIDTH 504 0
DWIDTH 21 0
BBX 3 41 9 -8
BITMAP
E0
E0
E0
E0
E0
E0
E0
E0
E0
E0
E0
E0
E0
E0
E0
E0
00
00
00
00
00
00
00
00
00
E0
E0
E0
E0
E0
E0
E0
E0
E0
E0
E0
E0
E0
E0
E0
E0
ENDCHAR
STARTCHAR 00A7
ENCODING 167
SWIDTH 504 0
DWIDTH 21 0
BBX 13 38 4 -8
BITMAP
1FE0
38F0
6030
6010
C010
E000
E000
F000
F800
7E00
7F80
3FE0
0FF0
07F8
1FF8
6078
6038
C018
C018
E018
F018
F830
FC70
7FE0
3FC0
1FF0
07F0
01F8
00F8
0078
0038
0018
0018
8018
8038
C030
F0E0
FF80
ENDCHAR
STARTCHAR 00A8
ENCODING 168
SWIDTH 504 0
DWIDTH 21 0
BBX 12 5 4 24
BITMAP
2060
70E0
F8F0
70E0
2060
ENDCHAR
STARTCHAR 00A9
ENCODING 169
SWIDTH 816 0
DWIDTH 34 0
BBX 30 30 2 0
BITMAP
001FE000
00F03C00
01800600
06000180
0C0000C0
180FD060
10383020
20E01810
61C00810
41800008
43800008
8380000C
87000004
87000004
87000004
87000004
87000004
87000004
83800004
43800008
41C00408
61C00418
20E00C10
10381820
180FE060
0C0000C0
06000180
03800700
00E01C00
003FF000
ENDCHAR
STARTCHAR 00AB
ENCODING 171
SWIDTH 480 0
DWIDTH 20 0
BBX 13 12 4 4
BITMAP
0208
0418
0C30
1860
70C0
E1C0
E1C0
70C0
3860
0830
0418
0208
ENDCHAR
STARTCHAR 00AC
ENCODING 172
SWIDTH 504 0
DWIDTH 21 0
BBX 17 10 2 6
BITMAP
FFFF80
FFFF80
000180
000180
000180
000180
000180
000180
000180
000180
ENDCHAR
STARTCHAR 00AD
ENCODING 173
SWIDTH 312 0
DWIDTH 13 0
BBX 9 3 2 8
BITMAP
FF80
FF80
FF80
ENDCHAR
STARTCHAR 00AE
ENCODING 174
SWIDTH 816 0
DWIDTH 34 0
BBX 30 30 2 0
BITMAP
001FE000
00F03C00
01800600
06000180
0C0000C0
18000060
107FC020
2038E010
60387010
40383808
40383808
8038380C
80383804
80383804
80383804
80387004
803C6004
803FC004
8039C004
4038E008
40387008
60387818
20383810
107EFE20
18000060
0C0000C0
06000180
03800700
00E01C00
003FF000
ENDCHAR
STARTCHAR 00AF
ENCODING 175
SWIDTH 336 0
DWIDTH 14 0
BBX 0 0 0 0
BITMAP
ENDCHAR
STARTCHAR 00B0
ENCODING 176
SWIDTH 336 0
DWIDTH 14 0
BBX 11 11 2 19
BITMAP
1F00
7380
40C0
C060
8020
8020
8020
C060
C040
71C0
3F00
ENDCHAR
STARTCHAR 00B1
ENCODING 177
SWIDTH 504 0
DWIDTH 21 0
BBX 0 0 0 0
BITMAP
ENDCHAR
STARTCHAR 00B2
ENCODING 178
SWIDTH 504 0
DWIDTH 21 0
BBX 0 0 0 0
BITMAP
ENDCHAR
STARTCHAR 00B3
ENCODING 179
SWIDTH 504 0
DWIDTH 21 0
BBX 0 0 0 0
BITMAP
ENDCHAR
STARTCHAR 00B4
ENCODING 180
SWIDTH 504 0
DWIDTH 21 0
BBX 9 7 7 23
BITMAP
0380
0780
0F00
1E00
3800
6000
C000
ENDCHAR
STARTCHAR 00B5
ENCODING 181
SWIDTH 576 0
DWIDTH 24 0
BBX 0 0 0 0
BITMAP
ENDCHAR
STARTCHAR 00B6
ENCODING 182
SWIDTH 480 0
DWIDTH 20 0
BBX 18 30 1 0
BITMAP
07FFC0
1FC600
3FC600
7FC600
7FC600
7FC600
7FC600
FFC600
7FC600
7FC600
7FC600
3FC600
1FC600
0FC600
00C600
00C600
00C600
00C600
00C600
00C600
00C600
00C600
00C600
00C600
00C600
00C600
00C600
00C600
00C600
00C600
ENDCHAR
STARTCHAR 00B7
ENCODING 183
SWIDTH 240 0
DWIDTH 10 0
BBX 5 5 3 13
BITMAP
70
F0
F8
70
60
ENDCHAR
STARTCHAR 00B8
ENCODING 184
SWIDTH 504 0
DWIDTH 21 0
BBX 9 9 7 -9
BITMAP
1000
1000
1800
3F00
0780
0380
8380
FF00
7E00
ENDCHAR
STARTCHAR 00B9
ENCODING 185
SWIDTH 504 0
DWIDTH 21 0
BBX 0 0 0 0
BITMAP
ENDCHAR
STARTCHAR 00BA
ENCODING 186
SWIDTH 360 0
DWIDTH 15 0
BBX 0 0 0 0
BITMAP
ENDCHAR
STARTCHAR 00BB
ENCODING 187
SWIDTH 456 0
DWIDTH 19 0
BBX 13 12 2 4
BITMAP
8300
4180
60C0
3060
1C70
0E38
0E38
1C30
3860
30C0
4180
8100
ENDCHAR
STARTCHAR 00BC
ENCODING 188
SWIDTH 840 0
DWIDTH 35 0
BBX 0 0 0 0
BITMAP
ENDCHAR
STARTCHAR 00BD
ENCODING 189
SWIDTH 960 0
DWIDTH 40 0
BBX 0 0 0 0
BITMAP
ENDCHAR
STARTCHAR 00BE
ENCODING 190
SWIDTH 840 0
DWIDTH 35 0
BBX 0 0 0 0
BITMAP
ENDCHAR
STARTCHAR 00BF
ENCODING 191
SWIDTH 360 0
DWIDTH 15 0
BBX 0 0 0 0
BITMAP
ENDCHAR
STARTCHAR 00C0
ENCODING 192
SWIDTH 744 0
DWIDTH 31 0
BBX 0 0 0 0
BITMAP
ENDCHAR
STARTCHAR 00C1
ENCODING 193
SWIDTH 744 0
DWIDTH 31 0
BBX 0 0 0 0
BITMAP
ENDCHAR
STARTCHAR 00C2
ENCODING 194
SWIDTH 744 0
DWIDTH 31 0
BBX 0 0 0 0
BITMAP
ENDCHAR
STARTCHAR 00C3
ENCODING 195
SWIDTH 744 0
DWIDTH 31 0
BBX 0 0 0 0
BITMAP
ENDCHAR
STARTCHAR 00C4
ENCODING 196
SWIDTH 744 0
DWIDTH 31 0
BBX 0 0 0 0
BITMAP
ENDCHAR
STARTCHAR 00C5
ENCODING 197
SWIDTH 744 0
DWIDTH 31 0
BBX 0 0 0 0
BITMAP
ENDCHAR
STARTCHAR 00C6
ENCODING 198
SWIDTH 1032 0
DWIDTH 43 0
BBX 0 0 0 0
BITMAP
ENDCHAR
STARTCHAR 00C7
ENCODING 199
SWIDTH 672 0
DWIDTH 28 0
BBX 0 0 0 0
BITMAP
ENDCHAR
STARTCHAR 00C8
ENCODING 200
SWIDTH 552 0
DWIDTH 23 0
BBX 0 0 0 0
BITMAP
ENDCHAR
STARTCHAR 00C9
ENCODING 201
SWIDTH 552 0
DWIDTH 23 0
BBX 0 0 0 0
BITMAP
ENDCHAR
STARTCHAR 00CA
ENCODING 202
SWIDTH 552 0
DWIDTH 23 0
BBX 0 0 0 0
BITMAP
ENDCHAR
STARTCHAR 00CB
ENCODING 203
SWIDTH 552 0
DWIDTH 23 0
BBX 0 0 0 0
BITMAP
ENDCHAR
STARTCHAR 00CC
ENCODING 204
SWIDTH 312 0
DWIDTH 13 0
BBX 0 0 0 0
BITMAP
ENDCHAR
STARTCHAR 00CD
ENCODING 205
SWIDTH 312 0
DWIDTH 13 0
BBX 0 0 0 0
BITMAP
ENDCHAR
STARTCHAR 00CE
ENCODING 206
SWIDTH 312 0
DWIDTH 13 0
BBX 0 0 0 0
BITMAP
ENDCHAR
STARTCHAR 00CF
ENCODING 207
SWIDTH 312 0
DWIDTH 13 0
BBX 0 0 0 0
BITMAP
ENDCHAR
STARTCHAR 00D0
ENCODING 208
SWIDTH 744 0
DWIDTH 31 0
BBX 0 0 0 0
BITMAP
ENDCHAR
STARTCHAR 00D1
ENCODING 209
SWIDTH 768 0
DWIDTH 32 0
BBX 0 0 0 0
BITMAP
ENDCHAR
STARTCHAR 00D2
ENCODING 210
SWIDTH 792 0
DWIDTH 33 0
BBX 0 0 0 0
BITMAP
ENDCHAR
STARTCHAR 00D3
ENCODING 211
SWIDTH 792 0
DWIDTH 33 0
BBX 0 0 0 0
BITMAP
ENDCHAR
STARTCHAR 00D4
ENCODING 212
SWIDTH 792 0
DWIDTH 33 0
BBX 0 0 0 0
BITMAP
ENDCHAR
STARTCHAR 00D5
ENCODING 213
SWIDTH 792 0
DWIDTH 33 0
BBX 0 0 0 0
BITMAP
ENDCHAR
STARTCHAR 00D6
ENCODING 214
SWIDTH 792 0
DWIDTH 33 0
BBX 0 0 0 0
BITMAP
ENDCHAR
STARTCHAR 00D7
ENCODING 215
SWIDTH 504 0
DWIDTH 21 0
BBX 14 14 3 8
BITMAP
2008
701C
783C
3C78
1EF0
0FE0
07C0
07C0
0FE0
1EF0
3C78
783C
F01C
6008
ENDCHAR
STARTCHAR 00D8
ENCODING 216
SWIDTH 792 0
DWIDTH 33 0
BBX 0 0 0 0
BITMAP
ENDCHAR
STARTCHAR 00D9
ENCODING 217
SWIDTH 744 0
DWIDTH 31 0
BBX 0 0 0 0
BITMAP
ENDCHAR
STARTCHAR 00DA
ENCODING 218
SWIDTH 744 0
DWIDTH 31 0
BBX 0 0 0 0
BITMAP
ENDCHAR
STARTCHAR 00DB
ENCODING 219
SWIDTH 744 0
DWIDTH 31 0
BBX 0 0 0 0
BITMAP
ENDCHAR
STARTCHAR 00DC
ENCODING 220
SWIDTH 744 0
DWIDTH 31 0
BBX 0 0 0 0
BITMAP
ENDCHAR
STARTCHAR 00DD
ENCODING 221
SWIDTH 600 0
DWIDTH 25 0
BBX 0 0 0 0
BITMAP
ENDCHAR
STARTCHAR 00DE
ENCODING 222
SWIDTH 552 0
DWIDTH 23 0
BBX 0 0 0 0
BITMAP
ENDCHAR
STARTCHAR 00DF
ENCODING 223
SWIDTH 600 0
DWIDTH 25 0
BBX 0 0 0 0
BITMAP
ENDCHAR
STARTCHAR 00E0
ENCODING 224
SWIDTH 456 0
DWIDTH 19 0
BBX 0 0 0 0
BITMAP
ENDCHAR
STARTCHAR 00E1
ENCODING 225
SWIDTH 456 0
DWIDTH 19 0
BBX 0 0 0 0
BITMAP
ENDCHAR
STARTCHAR 00E2
ENCODING 226
SWIDTH 456 0
DWIDTH 19 0
BBX 0 0 0 0
BITMAP
ENDCHAR
STARTCHAR 00E3
ENCODING 227
SWIDTH 456 0
DWIDTH 19 0
BBX 0 0 0 0
BITMAP
ENDCHAR
STARTCHAR 00E4
ENCODING 228
SWIDTH 456 0
DWIDTH 19 0
BBX 0 0 0 0
BITMAP
ENDCHAR
STARTCHAR 00E5
ENCODING 229
SWIDTH 456 0
DWIDTH 19 0
BBX 0 0 0 0
BITMAP
ENDCHAR
STARTCHAR 00E6
ENCODING 230
SWIDTH 720 0
DWIDTH 30 0
BBX 0 0 0 0
BITMAP
ENDCHAR
STARTCHAR 00E7
ENCODING 231
SWIDTH 432 0
DWIDTH 18 0
BBX 0 0 0 0
BITMAP
ENDCHAR
STARTCHAR 00E8
ENCODING 232
SWIDTH 456 0
DWIDTH 19 0
BBX 0 0 0 0
BITMAP
ENDCHAR
STARTCHAR 00E9
ENCODING 233
SWIDTH 456 0
DWIDTH 19 0
BBX 0 0 0 0
BITMAP
ENDCHAR
STARTCHAR 00EA
ENCODING 234
SWIDTH 456 0
DWIDTH 19 0
BBX 0 0 0 0
BITMAP
ENDCHAR
STARTCHAR 00EB
ENCODING 235
SWIDTH 456 0
DWIDTH 19 0
BBX 0 0 0 0
BITMAP
ENDCHAR
STARTCHAR 00EC
ENCODING 236
SWIDTH 240 0
DWIDTH 10 0
BBX 0 0 0 0
BITMAP
ENDCHAR
STARTCHAR 00ED
ENCODING 237
SWIDTH 240 0
DWIDTH 10 0
BBX 0 0 0 0
BITMAP
ENDCHAR
STARTCHAR 00EE
ENCODING 238
SWIDTH 240 0
DWIDTH 10 0
BBX 0 0 0 0
BITMAP
ENDCHAR
STARTCHAR 00EF
ENCODING 239
SWIDTH 240 0
DWIDTH 10 0
BBX 0 0 0 0
BITMAP
ENDCHAR
STARTCHAR 00F0
ENCODING 240
SWIDTH 552 0
DWIDTH 23 0
BBX 0 0 0 0
BITMAP
ENDCHAR
STARTCHAR 00F1
ENCODING 241
SWIDTH 552 0
DWIDTH 23 0
BBX 0 0 0 0
BITMAP
ENDCHAR
STARTCHAR 00F2
ENCODING 242
SWIDTH 504 0
DWIDTH 21 0
BBX 0 0 0 0
BITMAP
ENDCHAR
STARTCHAR 00F3
ENCODING 243
SWIDTH 504 0
DWIDTH 21 0
BBX 0 0 0 0
BITMAP
ENDCHAR
STARTCHAR 00F4
ENCODING 244
SWIDTH 504 0
DWIDTH 21 0
BBX 0 0 0 0
BITMAP
ENDCHAR
STARTCHAR 00F5
ENCODING 245
SWIDTH 504 0
DWIDTH 21 0
BBX 0 0 0 0
BITMAP
ENDCHAR
STARTCHAR 00F6
ENCODING 246
SWIDTH 504 0
DWIDTH 21 0
BBX 0 0 0 0
BITMAP
ENDCHAR
STARTCHAR 00F7
ENCODING 247
SWIDTH 504 0
DWIDTH 21 0
BBX 17 20 2 5
BITMAP
008000
01C000
03E000
03C000
01C000
008000
000000
000000
000000
FFFF80
FFFF80
FFFF80
000000
000000
008000
01C000
03E000
03E000
01C000
008000
ENDCHAR
STARTCHAR 00F8
ENCODING 248
SWIDTH 504 0
DWIDTH 21 0
BBX 0 0 0 0
BITMAP
ENDCHAR
STARTCHAR 00F9
ENCODING 249
SWIDTH 528 0
DWIDTH 22 0
BBX 0 0 0 0
BITMAP
ENDCHAR
STARTCHAR 00FA
ENCODING 250
SWIDTH 528 0
DWIDTH 22 0
BBX 0 0 0 0
BITMAP
ENDCHAR
STARTCHAR 00FB
ENCODING 251
SWIDTH 528 0
DWIDTH 22 0
BBX 0 0 0 0
BITMAP
ENDCHAR
STARTCHAR 00FC
ENCODING 252
SWIDTH 528 0
DWIDTH 22 0
BBX 0 0 0 0
BITMAP
ENDCHAR
STARTCHAR 00FD
ENCODING 253
SWIDTH 432 0
DWIDTH 18 0
BBX 0 0 0 0
BITMAP
ENDCHAR
STARTCHAR 00FE
ENCODING 254
SWIDTH 504 0
DWIDTH 21 0
BBX 0 0 0 0
BITMAP
ENDCHAR
STARTCHAR 00FF
ENCODING 255
SWIDTH 432 0
DWIDTH 18 0
BBX 0 0 0 0
BITMAP
ENDCHAR
STARTCHAR 0131
ENCODING 305
SWIDTH 264 0
DWIDTH 11 0
BBX 10 20 0 0
BITMAP
0200
0600
0E00
3E00
FE00
1E00
0E00
0E00
0E00
0E00
0E00
0E00
0E00
0E00
0E00
0E00
0E00
0E00
1F00
7FC0
ENDCHAR
STARTCHAR 02C6
ENCODING 710
SWIDTH 504 0
DWIDTH 21 0
BBX 11 8 5 22
BITMAP
0E00
0E00
1F00
3F80
3180
60C0
C040
8020
ENDCHAR
STARTCHAR 02C7
ENCODING 711
SWIDTH 504 0
DWIDTH 21 0
BBX 12 8 4 22
BITMAP
C010
6030
3060
38C0
1DC0
0F80
0F80
0700
ENDCHAR
STARTCHAR 02C9
ENCODING 713
SWIDTH 504 0
DWIDTH 21 0
BBX 11 3 5 25
BITMAP
FFE0
FFE0
FFE0
ENDCHAR
STARTCHAR 02D8
ENCODING 728
SWIDTH 504 0
DWIDTH 21 0
BBX 12 6 4 22
BITMAP
C010
4010
6030
7FE0
3FE0
0F80
ENDCHAR
STARTCHAR 02D9
ENCODING 729
SWIDTH 504 0
DWIDTH 21 0
BBX 5 4 8 24
BITMAP
70
F8
70
60
ENDCHAR
STARTCHAR 02DA
ENCODING 730
SWIDTH 504 0
DWIDTH 21 0
BBX 7 8 7 22
BITMAP
10
7C
C6
C6
C6
C6
7C
38
ENDCHAR
STARTCHAR 02DB
ENCODING 731
SWIDTH 504 0
DWIDTH 21 0
BBX 7 9 8 -9
BITMAP
04
18
30
60
E0
C0
E2
FE
78
ENDCHAR
STARTCHAR 02DC
ENCODING 732
SWIDTH 504 0
DWIDTH 21 0
BBX 11 6 5 23
BITMAP
0020
0020
7FE0
7FC0
C780
8000
ENDCHAR
STARTCHAR 02DD
ENCODING 733
SWIDTH 504 0
DWIDTH 21 0
BBX 12 7 5 23
BITMAP
1C70
1CF0
38E0
31C0
6180
4300
8200
ENDCHAR
STARTCHAR 037E
ENCODING 894
SWIDTH 312 0
DWIDTH 13 0
BBX 9 29 2 -8
BITMAP
1800
7E00
7F00
7F00
7F00
7F00
7E00
3C00
0000
0000
0000
0000
0000
0000
3E00
7F00
7F00
7F00
7F80
7F80
1F80
0700
0F00
0F00
1E00
7E00
FC00
7800
6000
ENDCHAR
STARTCHAR 2013
ENCODING 8211
SWIDTH 528 0
DWIDTH 22 0
BBX 20 2 1 9
BITMAP
FFFFF0
FFFFF0
ENDCHAR
STARTCHAR 2014
ENCODING 8212
SWIDTH 1008 0
DWIDTH 42 0
BBX 42 2 0 9
BITMAP
FFFFFFFFFFC0
FFFFFFFFFFC0
ENDCHAR
STARTCHAR 2018
ENCODING 8216
SWIDTH 264 0
DWIDTH 11 0
BBX 5 11 4 21
BITMAP
18
30
60
60
E0
E0
E0
F0
F8
78
70
ENDCHAR
STARTCHAR 2019
ENCODING 8217
SWIDTH 264 0
DWIDTH 11 0
BBX 5 11 3 21
BITMAP
60
F0
F0
F0
78
30
30
30
20
60
C0
ENDCHAR
STARTCHAR 201A
ENCODING 8218
SWIDTH 264 0
DWIDTH 11 0
BBX 5 11 2 -5
BITMAP
30
78
F8
38
18
18
18
18
10
20
60
ENDCHAR
STARTCHAR 201C
ENCODING 8220
SWIDTH 456 0
DWIDTH 19 0
BBX 13 11 4 21
BITMAP
1030
3060
60C0
60C0
E1C0
E1C0
E1C0
F1E0
F9F8
78F0
70E0
ENDCHAR
STARTCHAR 201D
ENCODING 8221
SWIDTH 432 0
DWIDTH 18 0
BBX 12 11 3 21
BITMAP
60C0
F1E0
F1E0
F1E0
78F0
3060
3060
3060
2040
60C0
C180
ENDCHAR
STARTCHAR 201E
ENCODING 8222
SWIDTH 432 0
DWIDTH 18 0
BBX 12 11 2 -5
BITMAP
3060
78F0
F9F0
3870
1830
1830
1830
1830
1060
2040
60C0
ENDCHAR
STARTCHAR 2020
ENCODING 8224
SWIDTH 480 0
DWIDTH 20 0
BBX 17 35 1 -6
BITMAP
03E000
03E000
03E000
01E000
01C000
00C000
608380
F88F80
FFFF80
FC9F80
F08780
008000
01C000
01C000
03E000
03E000
03E000
01E000
01E000
01C000
01C000
01C000
01C000
01C000
01C000
008000
008000
008000
008000
008000
008000
008000
008000
008000
008000
ENDCHAR
STARTCHAR 2021
ENCODING 8225
SWIDTH 480 0
DWIDTH 20 0
BBX 17 35 1 -6
BITMAP
03E000
03E000
03E000
01E000
01C000
01C000
608380
F88F80
FFFF80
FC9F80
F08780
008000
008000
01C000
01C000
01C000
03E000
03E000
01E000
01C000
01C000
008000
008000
608380
F88F80
FFFF80
FE9F80
F08780
008000
01C000
01C000
03E000
03E000
03E000
01C000
ENDCHAR
STARTCHAR 2022
ENCODING 8226
SWIDTH 480 0
DWIDTH 20 0
BBX 12 12 4 9
BITMAP
1F80
3FC0
7FE0
FFF0
FFF0
FFF0
FFF0
FFF0
7FE0
7FE0
3FC0
0F00
ENDCHAR
STARTCHAR 2026
ENCODING 8230
SWIDTH 1008 0
DWIDTH 42 0
BBX 32 5 3 1
BITMAP
70018006
F003C00F
F803C00F
7003C00F
60018006
ENDCHAR
STARTCHAR 2039
ENCODING 8249
SWIDTH 312 0
DWIDTH 13 0
BBX 7 12 4 4
BITMAP
02
04
0C
18
70
E0
E0
70
38
08
04
02
ENDCHAR
STARTCHAR 203A
ENCODING 8250
SWIDTH 312 0
DWIDTH 13 0
BBX 7 12 2 4
BITMAP
80
40
60
30
18
0E
0E
1C
38
20
40
80
ENDCHAR
STARTCHAR 2044
ENCODING 8260
SWIDTH 168 0
DWIDTH 7 0
BBX 21 31 -7 -1
BITMAP
000018
000010
000030
000060
000040
0000C0
000180
000180
000300
000200
000600
000C00
000800
001800
003000
003000
006000
00C000
00C000
018000
010000
030000
060000
060000
0C0000
180000
180000
300000
200000
600000
C00000
ENDCHAR
STARTCHAR 20A3
ENCODING 8355
SWIDTH 504 0
DWIDTH 21 0
BBX 21 30 1 0
BITMAP
FFFFE0
1F0030
0F0010
0E0010
0E0008
0E0000
0E0000
0E0000
0E0000
0E0000
0E0000
0E0040
0E0040
0E0040
0FFFC0
0FFFC0
0E0040
0E0040
0E0000
0E0000
0E0000
FFE000
0E0000
0E0000
0E0000
0E0000
0E0000
0F0000
1F0000
FFE000
ENDCHAR
STARTCHAR 20A4
ENCODING 8356
SWIDTH 504 0
DWIDTH 21 0
BBX 17 30 2 0
BITMAP
00FE00
07FF80
0F0380
1E0180
1C0000
3C0000
380000
380000
380000
380000
380000
380000
380000
3C0000
FFF800
1C0000
FFF800
0E0000
070000
070000
070000
070000
0F0000
0E0000
0E0000
1C0080
3C0080
380180
7FFF00
7FFF00
ENDCHAR
STARTCHAR 20A7
ENCODING 8359
SWIDTH 984 0
DWIDTH 41 0
BBX 39 30 1 -1
BITMAP
FFFE000000
1E03000000
0E01800000
0E00C04000
0E00E04000
0E00E04000
0E0070C000
0E0070C000
0E0070C000
0E0073C000
0E007FFFFC
0E0071C61C
0E0071C404
0E0071CC04
0E00E1CC00
0F00E1CE00
0F00C1CF00
0F81C1CF80
0EC381C7E0
0E3E01C3F8
0E0001C0FC
0E0001C03E
0E0001C01E
0E0001C00E
0E0001C006
0E0001D006
0E0001D806
0F0001C80C
1F0000FE1C
FFE000FFF0
ENDCHAR
STARTCHAR 20AC
ENCODING 8364
SWIDTH 504 0
DWIDTH 21 0
BBX 23 31 -1 0
BITMAP
000FD0
007070
00C018
018008
030008
060004
0E0000
0C0000
1C0000
180000
180000
380000
380000
380000
7FFFE0
380000
FFFFE0
380000
380000
380000
180000
1C0000
1C0000
0C0000
0E0002
070002
030006
018006
00C00E
007038
000FE0
ENDCHAR
STARTCHAR 2116
ENCODING 8470
SWIDTH 1104 0
DWIDTH 46 0
BBX 0 0 0 0
BITMAP
ENDCHAR
STARTCHAR 2122
ENCODING 8482
SWIDTH 720 0
DWIDTH 30 0
BBX 0 0 0 0
BITMAP
ENDCHAR
STARTCHAR 2202
ENCODING 8706
SWIDTH 504 0
DWIDTH 21 0
BBX 17 31 2 -1
BITMAP
100000
1F0000
038000
00E000
007000
003000
001800
001C00
000C00
000600
03E600
0C3F00
181F00
300F00
700F80
600780
E00780
E00780
E00380
E00380
E00380
E00380
E00380
F00380
700300
700300
780700
380600
1C0C00
0F1800
01E000
ENDCHAR
STARTCHAR 2206
ENCODING 8710
SWIDTH 528 0
DWIDTH 22 0
BBX 22 29 0 0
BITMAP
002000
003000
003000
003000
007800
005800
005C00
009C00
008C00
018E00
010600
010600
030700
020300
020380
040380
040180
0C01C0
0800C0
0800C0
1000E0
100060
100060
200070
200030
600038
400038
7FFFF8
FFFFFC
ENDCHAR
STARTCHAR 220F
ENCODING 8719
SWIDTH 744 0
DWIDTH 31 0
BBX 29 37 1 -8
BITMAP
FFFFFFF8
1F0007C0
0F000780
0E000780
0E000380
0E000380
0E000380
0E000380
0E000380
0E000380
0E000380
0E000380
0E000380
0E000380
0E000380
0E000380
0E000380
0E000380
0E000380
0E000380
0E000380
0E000380
0E000380
0E000380
0E000380
0E000380
0E000380
0E000380
0E000380
0E000380
0E000380
0E000380
0E000380
0E000780
0F000780
1F0007C0
FFE03FF8
ENDCHAR
STARTCHAR 2211
ENCODING 8721
SWIDTH 600 0
DWIDTH 25 0
BBX 21 37 2 -8
BITMAP
FFFFE0
3E0030
1F0010
0F8008
0F8008
07C000
03E000
01F000
00F000
00F800
007C00
003E00
001F00
000F00
000F80
0007C0
0003E0
0001E0
0001E0
0000C0
000180
000300
000600
000C00
000C00
001800
003000
006000
00C000
018000
030000
020000
060008
0C0008
180010
300030
FFFFE0
ENDCHAR
STARTCHAR 2212
ENCODING 8722
SWIDTH 504 0
DWIDTH 21 0
BBX 17 3 2 13
BITMAP
FFFF80
FFFF80
FFFF80
ENDCHAR
STARTCHAR 2215
ENCODING 8725
SWIDTH 168 0
DWIDTH 7 0
BBX 21 31 -7 -1
BITMAP
000018
000010
000030
000060
000040
0000C0
000180
000180
000300
000200
000600
000C00
000800
001800
003000
003000
006000
00C000
00C000
018000
010000
030000
060000
060000
0C0000
180000
180000
300000
200000
600000
C00000
ENDCHAR
STARTCHAR 2219
ENCODING 8729
SWIDTH 240 0
DWIDTH 10 0
BBX 5 5 3 13
BITMAP
70
F0
F8
70
60
ENDCHAR
STARTCHAR 221A
ENCODING 8730
SWIDTH 504 0
DWIDTH 21 0
BBX 20 34 1 0
BITMAP
000070
000060
0000C0
0000C0
000180
000180
000300
000300
000600
000600
000C00
000C00
001800
001800
003000
003000
006000
006000
00C000
00C000
018000
018000
030000
030000
060000
060000
8C0000
CC0000
D80000
580000
700000
300000
200000
200000
ENDCHAR
STARTCHAR 221E
ENCODING 8734
SWIDTH 504 0
DWIDTH 21 0
BBX 19 15 1 7
BITMAP
001F00
1C3F80
3E7980
636040
41C040
808040
808020
808020
818020
818040
4340C0
7E61C0
3E7F80
083F00
000E00
ENDCHAR
STARTCHAR 222B
ENCODING 8747
SWIDTH 336 0
DWIDTH 14 0
BBX 17 41 -2 -6
BITMAP
000380
000F80
000980
001080
003000
003000
006000
006000
006000
00E000
00E000
00E000
00E000
00E000
00C000
00C000
01C000
01C000
01C000
01C000
01C000
01C000
01C000
01C000
018000
018000
038000
038000
038000
038000
038000
038000
030000
030000
030000
060000
060000
840000
C80000
F80000
E00000
ENDCHAR
STARTCHAR 2248
ENCODING 8776
SWIDTH 504 0
DWIDTH 21 0
BBX 17 12 2 9
BITMAP
1E0080
7F8380
FFFF80
E1FF00
803C00
000000
000000
1E0080
7F8380
FFFF80
E1FF00
803C00
ENDCHAR
STARTCHAR 2264
ENCODING 8804
SWIDTH 504 0
DWIDTH 21 0
BBX 17 25 2 0
BITMAP
000080
000380
000F80
003F00
007E00
01F800
07E000
0F8000
3F0000
FC0000
F00000
FC0000
3F0000
0FC000
07E000
01F800
007E00
001F80
000F80
000380
000080
000000
FFFF80
FFFF80
FFFF80
ENDCHAR
STARTCHAR 2265
ENCODING 8805
SWIDTH 504 0
DWIDTH 21 0
BBX 17 25 2 0
BITMAP
800000
E00000
F80000
FC0000
3F0000
0FC000
03F000
01F800
007E00
001F80
000780
001F80
007E00
01F800
03E000
0FC000
3F0000
FC0000
F80000
E00000
800000
000000
FFFF80
FFFF80
FFFF80
ENDCHAR
STARTCHAR F001
ENCODING 61441
SWIDTH 528 0
DWIDTH 22 0
BBX 0 0 0 0
BITMAP
ENDCHAR
STARTCHAR F002
ENCODING 61442
SWIDTH 528 0
DWIDTH 22 0
BBX 0 0 0 0
BITMAP
ENDCHAR
STARTCHAR FB01
ENCODING 64257
SWIDTH 528 0
DWIDTH 22 0
BBX 0 0 0 0
BITMAP
ENDCHAR
STARTCHAR FB02
ENCODING 64258
SWIDTH 528 0
DWIDTH 22 0
BBX 0 0 0 0
BITMAP
ENDCHAR
ENDFONT
